<svg xmlns="http://www.w3.org/2000/svg" xmlns:xlink="http://www.w3.org/1999/xlink" version="1.1" id="Layer_1" x="0px" y="0px" width="100%" viewBox="0 0 1500 1500" enable-background="new 0 0 1500 1500" xml:space="preserve">

<path fill="#ffffff" opacity="1.000000" stroke="none" d=" M508.635864,1364.260254   C499.033936,1360.316162 489.596588,1356.959717 480.550659,1352.760132   C466.309570,1346.148438 452.132385,1339.342773 438.285553,1331.949951   C412.574219,1318.222412 387.595459,1303.235718 364.253082,1285.703247   C349.679504,1274.757080 335.248260,1263.615967 320.934174,1252.332642   C315.004730,1247.658569 309.405823,1242.535645 303.908325,1237.349976   C294.010132,1228.013306 283.772461,1218.957153 274.633209,1208.913330   C259.511353,1192.294678 244.964371,1175.140381 230.510590,1157.929932   C210.740692,1134.389282 193.612946,1108.884155 178.347153,1082.309570   C165.969238,1060.762085 154.648239,1038.474243 144.659485,1015.724121   C134.311249,992.155273 125.071243,967.969543 117.314613,943.431458   C110.177429,920.853088 105.239922,897.539734 100.128288,874.374756   C96.703583,858.854614 94.394493,843.067627 92.116699,827.323303   C90.849487,818.564209 90.970238,809.612793 89.944138,800.808838   C86.626427,772.343140 88.020386,743.774597 88.213707,715.262390   C88.310013,701.060059 90.457077,686.851746 92.030258,672.685425   C93.432892,660.054932 94.630043,647.338318 97.147186,634.908630   C101.829247,611.788696 106.335724,588.539612 112.895576,565.918518   C120.199265,540.732300 128.739517,515.796509 138.507919,491.460693   C150.616669,461.294342 164.958099,432.038574 182.792633,404.736877   C197.046524,382.916595 211.503494,361.198700 226.739532,340.061951   C235.336212,328.135895 245.437729,317.248505 255.319351,306.306854   C266.634125,293.778290 278.005035,281.236938 290.182465,269.568268   C302.978394,257.306946 316.753815,246.067413 330.108398,234.389557   C350.720154,216.365677 373.236633,200.916779 396.327057,186.352936   C410.806000,177.220627 425.819977,168.900940 440.849915,160.684952   C477.653564,140.566605 516.306335,124.701363 556.542114,113.027275   C579.308411,106.421822 602.492004,101.134705 625.678223,96.137871   C641.857971,92.650993 658.323364,90.392761 674.734375,88.112755   C683.830688,86.848991 693.067322,86.389816 702.258484,86.054420   C725.100098,85.220924 747.958862,83.992409 770.797363,84.225677   C787.336792,84.394615 803.870667,86.482201 820.376770,88.036034   C831.256775,89.060249 842.134216,90.337593 852.920776,92.073395   C867.645874,94.442993 882.526794,96.436363 896.905396,100.238007   C922.920471,107.116325 948.933838,114.287834 974.343079,123.083984   C995.929382,130.556717 1016.903931,139.964081 1037.718872,149.458572   C1068.982544,163.719086 1098.491089,181.190842 1126.594604,200.974075   C1143.497070,212.872482 1152.251099,229.106613 1153.114868,249.969528   C1153.908691,269.143677 1147.630615,285.322662 1133.959717,298.363129   C1122.946533,308.868500 1109.590210,314.144897 1094.076416,315.197113   C1074.438599,316.529053 1059.179077,307.538208 1043.721558,297.447632   C1029.523926,288.179504 1014.754272,279.734406 999.901184,271.534393   C972.131592,256.203552 942.815613,244.442322 912.588257,234.883194   C889.594604,227.611694 866.336914,221.438293 842.436218,218.027847   C826.779663,215.793793 811.112366,213.170258 795.358582,212.192764   C772.391846,210.767715 749.329407,209.875397 726.333618,210.268188   C710.029541,210.546692 693.736328,213.062134 677.494202,215.038696   C641.712402,219.393097 606.812805,227.718597 572.972046,240.083191   C556.484985,246.107147 540.357239,253.141785 524.192993,260.015533   C499.257111,270.619385 475.996277,284.414551 453.548370,299.391174   C437.609894,310.024902 422.153748,321.612213 407.685059,334.160706   C389.069824,350.305420 370.743378,366.983795 353.946350,384.976227   C329.942261,410.688599 308.532166,438.641754 291.028656,469.307190   C281.404022,486.169250 271.557739,502.997681 263.380554,520.571411   C250.868164,547.462036 239.803497,575.022705 232.978241,604.042419   C228.575607,622.761597 223.855057,641.426086 220.203827,660.294434   C217.913773,672.128784 217.095520,684.274658 216.069962,696.319275   C215.077759,707.972046 214.614777,719.671631 214.016388,731.355652   C213.593735,739.608521 212.699219,747.903137 213.132507,756.120239   C214.022781,773.004150 215.634308,789.850952 217.000214,806.708862   C219.144379,833.172058 224.059067,859.229675 231.276154,884.668518   C237.728531,907.411926 245.720993,929.780090 254.203476,951.864685   C260.098480,967.212708 267.497864,982.046692 275.070099,996.672852   C288.487518,1022.589233 304.262817,1047.069458 321.842712,1070.393433   C340.857452,1095.621460 361.783691,1119.218262 385.192352,1140.317627   C403.476349,1156.797974 422.926178,1172.096924 442.707214,1186.776489   C468.238281,1205.723022 496.112488,1220.969482 524.920837,1234.378174   C550.976807,1246.505615 577.804382,1256.699707 605.646545,1263.948730   C622.212891,1268.262329 638.880493,1272.261108 655.643616,1275.717529   C665.833801,1277.818726 676.298340,1278.575195 686.629333,1280.010254   C713.372375,1283.724854 740.278137,1284.731079 767.202698,1283.850586   C782.755798,1283.341919 798.357178,1282.022583 813.762634,1279.838989   C834.954590,1276.834961 856.132019,1273.360840 877.041687,1268.824951   C903.547913,1263.074951 929.285217,1254.423218 954.250366,1243.831787   C970.606750,1236.892700 986.646912,1229.126099 1002.467346,1221.024414   C1027.882935,1208.008911 1051.735107,1192.429810 1074.410889,1175.073730   C1083.073120,1168.443604 1091.463745,1161.446899 1100.281982,1155.035278   C1108.688965,1148.922485 1118.256104,1145.935303 1128.714844,1144.866821   C1144.616821,1143.242065 1158.870850,1146.960205 1171.850464,1155.996094   C1185.744507,1165.668823 1193.863892,1179.094849 1196.984131,1195.604126   C1200.543823,1214.437500 1196.489258,1231.744629 1184.542969,1246.526611   C1178.815674,1253.613525 1171.463135,1259.587769 1164.150879,1265.151367   C1148.788330,1276.840332 1133.327759,1288.472534 1117.231689,1299.105103   C1100.785400,1309.969116 1083.796631,1320.086670 1066.573853,1329.684937   C1030.515015,1349.780151 992.602051,1365.727173 953.283630,1378.287354   C927.408997,1386.552979 901.191467,1393.529297 874.367676,1397.987549   C859.293945,1400.492920 844.204041,1402.967651 829.051270,1404.908691   C817.510742,1406.386963 805.877136,1407.362305 794.254150,1407.922729   C774.420166,1408.878906 754.558716,1409.927734 734.715149,1409.814697   C718.438293,1409.722046 702.121155,1408.497314 685.908936,1406.894287   C648.867310,1403.231201 612.206726,1396.934326 576.398071,1386.784302   C553.643860,1380.334595 531.431396,1371.973755 508.635864,1364.260254  z" data-index="1" style="opacity: 1;"/>
<path fill="#ffffff" opacity="1.000000" stroke="none" d=" M865.754517,894.743347   C875.329163,885.832214 885.218140,877.702698 893.843506,868.401428   C907.927979,853.213318 918.967041,835.920654 927.188049,816.747131   C932.564636,804.207581 936.811157,791.430847 939.433044,778.093750   C942.428040,762.857971 944.006226,747.418274 942.871765,731.949646   C941.336914,711.020752 936.867065,690.605286 928.930847,671.106384   C922.064514,654.236084 912.984375,638.565125 901.704468,624.250610   C883.654602,601.344727 862.007141,582.714844 836.156311,568.956787   C817.139343,558.835815 797.238831,551.514404 775.804565,549.104919   C764.366089,547.819092 752.752808,546.672546 741.302734,547.221680   C721.802429,548.156921 702.883423,552.692688 684.606506,559.766968   C664.180603,567.673035 645.716553,578.907104 628.862366,592.744995   C615.595764,603.637268 604.193054,616.337341 594.145325,630.293335   C581.662109,647.632019 572.091797,666.422119 565.723694,686.773865   C561.347168,700.760559 558.978516,715.106628 557.833740,729.803955   C555.781067,756.156311 560.293457,781.322632 568.944641,806.025085   C577.005737,829.042542 588.382507,849.972168 606.363831,866.861572   C622.638489,882.148010 639.486938,896.875183 655.043152,912.860229   C670.382202,928.622131 680.564880,947.611694 682.909119,969.922424   C684.112305,981.373962 684.753235,992.922729 684.910828,1004.437683   C685.216125,1026.744995 685.000000,1049.059448 685.000000,1072.000000   C674.870361,1072.000000 664.943298,1072.000000 655.016235,1072.000000   C640.136658,1072.000000 632.935974,1065.392944 632.039001,1050.538818   C631.491089,1041.465942 631.478638,1032.361084 630.969238,1023.285034   C629.954224,1005.198425 627.896118,987.126099 619.176331,970.985352   C613.901611,961.221558 606.948303,952.226440 599.850830,943.627441   C593.726257,936.207153 586.188354,929.971497 579.527771,922.971985   C564.966980,907.670349 550.811279,892.029724 539.502686,874.043579   C523.733704,848.963379 511.413849,822.424133 506.075317,793.111816   C503.772369,780.467224 502.071625,767.647522 501.172089,754.831970   C500.356293,743.209045 499.812317,731.331543 501.283783,719.839722   C503.396423,703.340637 506.301819,686.752075 510.995178,670.828491   C515.617188,655.146851 522.036743,639.829834 529.223145,625.112427   C537.562317,608.034302 548.725586,592.623657 561.199707,578.129395   C575.570923,561.430847 591.878723,546.948853 610.013489,534.699951   C631.945129,519.886414 655.782227,508.737854 681.493591,502.059601   C693.218140,499.014313 705.013000,495.601440 716.986755,494.309204   C733.214539,492.557953 749.694885,491.552216 765.976624,492.270721   C790.024475,493.331970 813.491699,498.433258 836.158081,506.929108   C852.250732,512.961060 867.653320,520.319519 882.081238,529.633423   C895.966980,538.597351 908.823486,548.808105 920.898499,560.194824   C945.405396,583.304932 964.280090,610.302246 978.217407,640.774475   C987.380676,660.808716 993.420410,681.805603 997.234436,703.613159   C1000.719788,723.541443 1000.894043,743.554443 999.673889,763.412903   C998.141418,788.353760 991.885010,812.524353 982.114136,835.723389   C974.040405,854.893127 964.109436,872.957397 951.678772,889.590515   C947.166992,895.627563 942.019470,901.242554 936.752075,906.650879   C925.242615,918.468140 913.082581,929.671387 901.899231,941.781921   C886.096008,958.895325 874.534485,978.521179 872.134827,1002.198608   C870.706177,1016.294922 870.583496,1030.528687 870.026001,1044.706665   C869.586609,1055.880615 865.510254,1064.950684 855.628906,1070.853271   C854.703003,1071.406372 853.579407,1071.943970 852.544189,1071.950562   C840.567017,1072.026733 828.589172,1071.999268 816.261414,1071.999268   C816.166321,1070.358032 816.011353,1068.923218 816.010620,1067.488403   C815.996338,1039.492798 815.251038,1011.470825 816.233093,983.509644   C817.043030,960.448669 823.106567,938.470703 838.986877,920.733826   C847.182434,911.580078 856.623230,903.541260 865.754517,894.743347  z" data-index="2" style="opacity: 1;"/>
<path fill="#ffffff" opacity="1.000000" stroke="none" d=" M634.000854,747.166626   C635.663208,747.111084 637.325623,747.007141 638.987976,747.006958   C712.310425,746.998901 785.632812,746.986938 858.955200,747.058105   C861.342529,747.060425 863.729004,747.921204 866.581909,748.471802   C854.546936,777.097717 842.932556,804.546692 831.462830,832.055969   C820.854431,857.499451 810.376160,882.997375 799.933655,908.509399   C799.223083,910.245361 799.038818,912.300598 799.037109,914.207764   C798.990417,964.866821 799.000000,1015.525940 799.000000,1066.185059   C799.000000,1067.981201 799.000000,1069.777344 799.000000,1071.776367   C785.657837,1071.776367 772.710571,1071.776367 759.318787,1071.776367   C759.222900,1070.699951 759.014343,1069.448608 759.013977,1068.197388   C758.997742,1013.872131 758.764282,959.544678 759.287048,905.224426   C759.355286,898.134094 762.959656,890.945312 765.550415,884.036255   C773.693359,862.320129 782.201050,840.741150 790.423035,819.054260   C793.276733,811.527283 795.745056,803.852539 798.300476,796.215515   C798.800720,794.720398 798.891296,793.088196 799.222656,791.228271   C766.018616,791.228271 733.240051,791.228271 699.695679,791.228271   C701.693420,796.996399 703.490356,802.567078 705.541870,808.042419   C714.640076,832.325623 723.827881,856.575256 732.940796,880.852966   C734.582031,885.225403 735.850952,889.742188 737.592468,894.071350   C741.305969,903.302368 742.154175,912.711426 740.059875,922.431458   C739.785095,923.706909 740.000977,925.089539 740.000977,926.422485   C739.999817,972.915588 740.000000,1019.408630 740.000000,1065.901733   C740.000000,1067.718872 740.000000,1069.535889 740.000000,1071.934692   C728.306335,1072.292603 716.789062,1072.735107 705.268494,1072.849365   C704.190369,1072.860229 702.818237,1070.947632 702.096924,1069.643555   C701.602722,1068.750000 702.000122,1067.362915 702.000122,1066.196411   C701.999939,1020.036621 701.802307,973.875366 702.127380,927.717896   C702.218201,914.821289 698.954529,903.097046 693.913269,891.476746   C685.061340,871.072510 676.614380,850.492798 667.963013,830.001282   C661.253113,814.108398 654.485413,798.239929 647.752441,782.356750   C643.163269,771.530884 638.589722,760.698242 633.998291,749.166992   C633.991821,748.032471 633.996338,747.599548 634.000854,747.166626  z" data-index="3" style="opacity: 1;"/>
<path fill="#ffffff" opacity="1.000000" stroke="none" d=" M638.986633,1111.166504   C641.054688,1110.444336 643.121826,1109.093872 645.190979,1109.090820   C716.823303,1108.987671 788.455750,1109.011475 860.644470,1109.268311   C861.364563,1109.738770 861.575439,1109.894531 861.833374,1109.986694   C861.474854,1119.980469 860.005249,1129.772705 853.528198,1137.792236   C849.115906,1143.255249 842.968201,1146.699585 835.859314,1146.911621   C816.121704,1147.500000 796.372681,1147.844971 776.626221,1147.957764   C747.812256,1148.122192 718.996338,1148.081543 690.182007,1147.953979   C680.595703,1147.911621 670.851929,1148.293213 661.471313,1146.731567   C651.895386,1145.137451 644.973877,1138.383301 641.368530,1129.408813   C639.303040,1124.267212 639.073486,1118.388184 638.268311,1112.320068   C638.738831,1111.635254 638.894592,1111.424438 638.986633,1111.166504  z" data-index="4"/>
<path fill="#ffffff" opacity="1.000000" stroke="none" d=" M845.969116,1171.000000   C849.440369,1171.000000 852.417542,1171.000000 855.874878,1171.000000   C856.541260,1181.901123 852.111755,1190.573975 845.847534,1198.688965   C838.982605,1207.582031 829.598938,1209.975708 818.961182,1210.054810   C801.049438,1210.188110 783.140015,1210.947510 765.230164,1210.927246   C743.988892,1210.903320 722.748718,1210.298462 701.507019,1210.017578   C693.334534,1209.909546 685.128967,1209.566895 676.994873,1210.136108   C670.427307,1210.595947 665.001038,1208.336182 660.269409,1204.577148   C650.735657,1197.002808 644.991333,1186.970337 643.026489,1174.885010   C642.846191,1173.776123 643.002502,1172.612549 643.002502,1171.000000   C710.667297,1171.000000 778.071167,1171.000000 845.969116,1171.000000  z" data-index="5"/>
<path fill="#ffffff" opacity="1.000000" stroke="none" d=" M981.740417,443.616821   C983.735229,433.663269 988.271973,425.300598 993.982910,417.600983   C1004.960083,402.801422 1020.465088,395.434509 1038.052612,392.115173   C1044.311768,390.933899 1050.815186,391.047211 1057.646362,390.536713   C1059.545410,399.709503 1061.005615,408.216339 1060.261353,417.295532   C1059.599121,425.372864 1058.080078,432.992249 1055.009277,440.400452   C1051.172607,449.656219 1045.182251,457.457123 1037.511841,463.646301   C1031.899780,468.174561 1025.370972,471.590179 1019.143555,475.322845   C1015.680908,477.398376 1017.115784,480.192047 1017.489319,482.967712   C1019.146301,495.279053 1016.987610,506.952148 1011.415588,518.011719   C1011.167358,518.504395 1010.438110,518.754761 1009.643738,519.325928   C999.870300,485.117310 975.074646,468.899139 941.534790,461.346008   C944.925415,459.051727 947.651672,456.261780 950.942139,455.165527   C959.323608,452.373169 967.909424,450.133240 976.518127,448.120026   C979.205261,447.491638 980.988037,446.741028 981.740417,443.616821  M1020.551392,448.999969   C1023.007629,448.341156 1025.683228,448.099243 1027.878296,446.944031   C1034.055298,443.693237 1036.821167,435.365143 1034.085815,429.289642   C1030.649780,421.658295 1023.801086,418.483826 1016.310730,421.005096   C1010.475525,422.969238 1005.784363,429.567413 1006.048523,435.066742   C1006.375854,441.880249 1012.101562,447.550171 1020.551392,448.999969  z" data-index="6" style="opacity: 1;"/>
<path fill="#ffffff" opacity="1.000000" stroke="none" d=" M760.452942,1272.796143   C749.520935,1273.050415 739.140442,1273.035645 728.768127,1270.185181   C715.458740,1266.527710 705.776306,1258.234375 697.063721,1248.279541   C695.149902,1246.092773 693.334961,1243.752441 691.890259,1241.243408   C690.742981,1239.250977 690.230835,1236.892822 689.078918,1233.707764   C729.986328,1233.707764 769.762939,1233.707764 809.579651,1233.707764   C808.640259,1246.108643 787.940308,1268.357178 760.452942,1272.796143  z" data-index="7"/>
<path fill="#ffffff" opacity="1.000000" stroke="none" d=" M475.206116,439.559540   C470.855957,433.664307 470.442535,427.621613 474.139618,421.952911   C476.883484,417.745758 481.678009,416.376678 486.626282,417.074249   C493.033813,417.977570 496.156738,423.447662 499.889801,427.733856   C507.819946,436.839050 515.363586,446.280579 523.078003,455.574036   C531.108643,465.248383 539.155029,474.909546 547.191223,484.579254   C548.859314,486.586487 550.679199,488.492706 552.142090,490.640991   C556.930603,497.673309 556.129395,504.764099 550.187134,509.294006   C544.317444,513.768555 537.307312,512.739868 531.967834,506.470459   C516.903381,488.782227 501.889038,471.051270 486.850220,453.341156   C483.037354,448.851105 479.206757,444.376160 475.206116,439.559540  z" data-index="8"/>
<path fill="#ffffff" opacity="1.000000" stroke="none" d=" M476.999054,919.595337   C475.623138,926.649719 469.906921,929.049927 464.952759,931.951050   C441.553101,945.653748 418.133881,959.327637 394.546173,972.702332   C384.791870,978.233215 374.424225,974.603638 373.077759,961.746887   C372.416718,955.435120 377.446503,952.329529 381.894775,949.700806   C404.964539,936.067810 428.126312,922.585999 451.426453,909.351440   C455.787659,906.874207 460.965790,904.250916 465.693451,904.380371   C472.503937,904.566650 477.813721,909.985962 476.999054,919.595337  z" data-index="9"/>
<path fill="#ffffff" opacity="1.000000" stroke="none" d=" M1061.320068,946.734009   C1050.392334,940.349365 1039.772461,934.183167 1029.152222,928.017517   C1024.569092,925.356689 1022.315613,917.287354 1024.645630,911.875183   C1027.059204,906.268799 1034.030884,902.628296 1039.402466,904.972351   C1046.320312,907.991028 1053.034424,911.547729 1059.601074,915.285828   C1074.207031,923.600342 1088.670532,932.165344 1103.183960,940.642029   C1109.043457,944.064331 1114.972900,947.378357 1120.706421,951.001587   C1127.912231,955.555176 1129.412354,962.183472 1125.051636,969.572327   C1122.148315,974.492065 1114.690063,977.282654 1107.894043,973.386292   C1093.601929,965.192322 1079.378418,956.878845 1065.114746,948.635193   C1064.000488,947.991150 1062.792236,947.509644 1061.320068,946.734009  z" data-index="10"/>
<path fill="#ffffff" opacity="1.000000" stroke="none" d=" M759.142822,316.616364   C765.397278,318.660553 768.963745,323.076660 768.975098,329.241699   C769.030090,359.059570 769.045471,388.877747 768.969543,418.695496   C768.949280,426.645599 763.407166,431.765564 755.813049,432.086395   C749.233765,432.364380 742.790405,425.897552 742.869324,418.540802   C743.185547,389.059387 742.997864,359.572571 743.001221,330.087769   C743.002319,320.496490 748.992004,315.303192 759.142822,316.616364  z" data-index="11"/>
<path fill="#ffffff" opacity="1.000000" stroke="none" d=" M428.490723,680.178223   C435.149750,683.155823 437.169586,690.797607 434.789490,697.403198   C432.788696,702.955994 426.110657,705.486084 419.466095,704.263611   C407.028900,701.975281 394.510193,700.134460 382.047485,697.979614   C364.968506,695.026550 347.891083,692.056396 330.852295,688.882629   C324.079193,687.621033 318.557129,677.140686 321.059998,670.976807   C322.911255,666.417603 331.208557,662.704651 336.311523,663.636719   C348.751038,665.908752 361.246948,667.870422 373.711060,670.010010   C385.688263,672.066040 397.663544,674.136414 409.620941,676.303589   C415.809906,677.425354 421.958374,678.770691 428.490723,680.178223  z" data-index="12"/>
<path fill="#ffffff" opacity="1.000000" stroke="none" d=" M1095.361572,676.287842   C1104.859741,674.518127 1113.986450,673.016724 1123.098877,671.432556   C1135.237061,669.322388 1147.339355,666.991455 1159.507690,665.076355   C1164.503296,664.290222 1169.812500,663.357361 1174.653564,664.252075   C1181.216675,665.464966 1183.752808,670.965759 1182.998291,678.853882   C1182.472290,684.353149 1178.462036,687.934265 1172.259277,689.035706   C1156.311646,691.867615 1140.403809,694.921753 1124.462524,697.790710   C1110.736572,700.261047 1097.044800,703.053650 1083.224609,704.816711   C1075.460693,705.807190 1070.238159,701.226196 1069.142700,694.237671   C1067.711792,685.109619 1072.882935,680.712524 1080.119385,679.057007   C1085.011597,677.937927 1090.024658,677.346802 1095.361572,676.287842  z" data-index="13"/>
<path fill="#ffffff" opacity="1.000000" stroke="none" d=" M633.686035,747.164673   C633.996338,747.599548 633.991821,748.032471 633.972412,748.789856   C633.762085,748.463806 633.566711,747.813232 633.686035,747.164673  z" data-index="14"/>
<path fill="#ffffff" opacity="1.000000" stroke="none" d=" M861.874695,1109.724609   C861.575439,1109.894531 861.364563,1109.738770 861.108887,1109.343018   C861.316711,1109.265259 861.616333,1109.363892 861.874695,1109.724609  z" data-index="15"/>
<path fill="#ffffff" opacity="1.000000" stroke="none" d=" M638.724609,1111.125244   C638.894592,1111.424438 638.738831,1111.635254 638.342957,1111.890869   C638.265259,1111.683105 638.363953,1111.383545 638.724609,1111.125244  z" data-index="16"/>

</svg>